<?xml version="1.0" encoding="UTF-8"?>
<!DOCTYPE svg PUBLIC "-//W3C//DTD SVG 1.1//EN" "http://www.w3.org/Graphics/SVG/1.1/DTD/svg11.dtd">
<!-- Creator: CorelDRAW 2018 (64-Bit Evaluation Version) -->
<svg xmlns="http://www.w3.org/2000/svg" xml:space="preserve" width="1.15174in" height="1.70259in" version="1.1" style="shape-rendering:geometricPrecision; text-rendering:geometricPrecision; image-rendering:optimizeQuality; fill-rule:evenodd; clip-rule:evenodd"
viewBox="0 0 463.95 685.85"
 xmlns:xlink="http://www.w3.org/1999/xlink">
 <defs>
  <style type="text/css">
   <![CDATA[
    .fil0 {fill:#024668}
   ]]>
  </style>
 </defs>
 <g id="Layer_x0020_1">
  <metadata id="CorelCorpID_0Corel-Layer"/>
  <g id="_2658150748064">
   <path class="fil0" d="M162.38 216.37c0,-31.89 17.21,-52.69 41.82,-64.61 19.7,-9.54 34.82,-9.73 54.62,-0.45 10.03,4.7 16.05,8.34 23.5,16.07 0.03,0.03 1.57,1.75 1.94,2.15 5.19,5.7 7.56,8.47 10.9,16.39 21.15,50.16 -13.4,104.13 -63.19,104.13 -39.39,0 -69.59,-34.3 -69.59,-73.69zm-100.98 77.78c-8.19,4.33 -16.31,11.51 -22.86,18.08 -20.95,21.02 -38.55,50.07 -38.55,84.26 0,30.78 0.19,45.41 17.3,74.13 13.9,23.34 54.9,63.78 83.07,54.93 13.75,-4.32 9.79,-9.19 11.85,-23.67 1.19,-8.35 6.3,-19.8 6.5,-28.97l20.27 27.49c31.72,40.56 23.57,22.62 80.72,25.72 13.76,0.75 1.31,2.56 22.02,0.21l50.29 -0.2c4.73,0 5.85,4.57 17.45,-7.11 3.07,-3.09 3.48,-4.28 6.17,-7.48l29.6 -38.63c0.2,9.17 5.32,20.62 6.5,28.97 2.06,14.47 -1.91,19.35 11.85,23.67 32.62,10.25 100.37,-50.36 100.37,-109.95 0,-32.01 -1.02,-53.22 -19.71,-81.27 -9.18,-13.79 -27.29,-32.55 -41.7,-40.17 0,-38.52 -5.57,-71.23 -14.21,-101.78 -4.61,-16.33 -16.86,-45.84 -25.63,-60.34 -4.05,-6.7 -6.77,-12.21 -11.19,-18.83 -26.77,-40 -40.19,-52.97 -75.57,-84.08 -2.76,-2.42 -5.72,-4.44 -8.49,-6.52 -5.25,-3.93 -30.38,-22.6 -35.48,-22.6 -8.25,0 -55.54,37.73 -66.53,48.86l-20.47 21.83c-2.91,3.27 -4.48,4.38 -7.16,7.85 -26.89,34.81 -49.63,69.52 -61.69,112.97 -9.65,34.76 -14.71,64.11 -14.71,102.64z"/>
   <path class="fil0" d="M219.7 565.7l0 103.71c0,23.54 30.02,19.41 30.02,2.73l0 -106.44c0,-22.08 -30.02,-22.08 -30.02,0z"/>
   <path class="fil0" d="M167.84 558.87l0 75.05c0,17.18 28.65,17.18 28.65,0l0 -75.05c0,-17.8 -28.65,-17.8 -28.65,0z"/>
   <path class="fil0" d="M268.82 562.97l0 53.22c0,13.98 20.73,18.85 27.31,6.84 4.39,-8.01 2.71,-41.65 2.71,-53.24 0,-30.21 -30.02,-22.69 -30.02,-6.82z"/>
  </g>
 </g>
</svg>
