<svg xmlns="http://www.w3.org/2000/svg" width="18.169" height="11.588" viewBox="0 0 18.169 11.588">
  <path id="Icon_weather-direction-right" data-name="Icon weather-direction-right" d="M11.928,19.168a1.422,1.422,0,0,0,.413,1.022,1.213,1.213,0,0,0,1,.359h11.8L23.3,22.486a1.387,1.387,0,0,0,0,2.009,1.392,1.392,0,0,0,1.04.413,1.272,1.272,0,0,0,.951-.484L29.685,20.1a1.392,1.392,0,0,0,.413-1.04,1.492,1.492,0,0,0-.43-1.04l-4.43-4.287a1.205,1.205,0,0,0-.969-.413,1.379,1.379,0,0,0-1.022.395,1.314,1.314,0,0,0-.413,1,1.392,1.392,0,0,0,.413,1.022l1.9,1.937H13.327a1.383,1.383,0,0,0-1,.448A1.509,1.509,0,0,0,11.928,19.168Z" transform="translate(-11.928 -13.319)" fill="#00afef"/>
</svg>
