<svg xmlns="http://www.w3.org/2000/svg" width="19.28" height="30.848" viewBox="0 0 19.28 30.848">
  <path id="Icon_metro-location" data-name="Icon metro-location" d="M17.995,1.928a9.64,9.64,0,0,0-9.64,9.64c0,9.64,9.64,21.208,9.64,21.208s9.64-11.568,9.64-21.208a9.64,9.64,0,0,0-9.64-9.64Zm0,26.737c-3.261,0-8.634-10.908-8.3-17.1s5.044-8.329,8.3-8.329a8.586,8.586,0,0,1,8.358,8.329C26.518,17.223,21.256,28.666,17.995,28.666Zm-3.736-17.1A3.736,3.736,0,1,1,17.995,15.3,3.736,3.736,0,0,1,14.259,11.568Z" transform="translate(-8.355 -1.928)" fill="#575757"/>
</svg>
